<!DOCTYPE svg PUBLIC "-//W3C//DTD SVG 1.1//EN" "http://www.w3.org/Graphics/SVG/1.1/DTD/svg11.dtd">
<!-- Uploaded to: SVG Repo, www.svgrepo.com, Transformed by: SVG Repo Mixer Tools -->
<svg fill="#2bd43f" width="800px" height="800px" viewBox="0 0 24 24" id="chart-column-grow" data-name="Flat Color" xmlns="http://www.w3.org/2000/svg" class="icon flat-color" stroke="#2bd43f" transform="rotate(0)matrix(1, 0, 0, 1, 0, 0)">
<g id="SVGRepo_bgCarrier" stroke-width="0"/>
<g id="SVGRepo_tracerCarrier" stroke-linecap="round" stroke-linejoin="round" stroke="#CCCCCC" stroke-width="0.048"/>
<g id="SVGRepo_iconCarrier">
<path id="secondary" d="M22,6.76l-1-4A1,1,0,0,0,20,2H16a1,1,0,0,0,0,2h2.12C13.79,9.69,5.9,11,3,11a1,1,0,0,0,0,2c3.16,0,11.71-1.45,16.56-7.63L20,7.24A1,1,0,1,0,22,6.76Z" style="fill: #2bd43f8fff6a2ca9bc;"/>
<path id="primary" d="M23,11V21a1,1,0,0,1-1,1H19a1,1,0,0,1-1-1V11a1,1,0,0,1,1-1h3A1,1,0,0,1,23,11Zm-9,3H11a1,1,0,0,0-1,1v6a1,1,0,0,0,1,1h3a1,1,0,0,0,1-1V15A1,1,0,0,0,14,14ZM6,16H3a1,1,0,0,0-1,1v4a1,1,0,0,0,1,1H6a1,1,0,0,0,1-1V17A1,1,0,0,0,6,16Z" style="fill: #2bd43f8fff6a;"/>
</g>
</svg>